<svg width="20" height="20" viewBox="0 0 20 20" fill="none" xmlns="http://www.w3.org/2000/svg">
<path d="M16.6812 4.87468C15.45 2.29343 12.9125 0.662178 10.0562 0.624678C7.19373 0.587178 4.65623 2.16218 3.38123 4.74968C2.05623 7.43093 2.36873 10.5372 4.20623 12.8684L8.94998 18.8934C9.06837 19.0437 9.21931 19.1652 9.39144 19.2488C9.56357 19.3323 9.7524 19.3757 9.94373 19.3757C10.1351 19.3757 10.3239 19.3323 10.496 19.2488C10.6682 19.1652 10.8191 19.0437 10.9375 18.8934L15.8062 12.7059C17.575 10.4559 17.9062 7.46218 16.6812 4.88093V4.87468ZM14.8312 11.9309L9.93748 18.1184L5.19373 12.0934C3.66248 10.1497 3.39998 7.54343 4.50623 5.30593C5.56873 3.15593 7.59998 1.88093 9.94998 1.88093H10.0437C12.4562 1.91843 14.5187 3.23718 15.5562 5.41843C16.5937 7.59968 16.325 10.0309 14.8312 11.9309Z" fill="white"/>
<path d="M9.94375 4.47461C8.0625 4.47461 6.53125 6.00586 6.53125 7.88711C6.53125 9.76836 8.0625 11.2996 9.94375 11.2996C11.825 11.2996 13.3563 9.76836 13.3563 7.88711C13.3563 6.00586 11.825 4.47461 9.94375 4.47461ZM9.94375 10.0434C9.37922 10.0298 8.84238 9.79599 8.44791 9.39192C8.05344 8.98786 7.83262 8.44555 7.83262 7.88086C7.83262 7.31617 8.05344 6.77386 8.44791 6.36979C8.84238 5.96573 9.37922 5.73193 9.94375 5.71836C10.5083 5.73193 11.0451 5.96573 11.4396 6.36979C11.8341 6.77386 12.0549 7.31617 12.0549 7.88086C12.0549 8.44555 11.8341 8.98786 11.4396 9.39192C11.0451 9.79599 10.5083 10.0298 9.94375 10.0434Z" fill="white"/>
</svg>
